<?xml version="1.0" encoding="utf-8"?>
<!-- Generator: Adobe Illustrator 28.3.0, SVG Export Plug-In . SVG Version: 6.00 Build 0)  -->
<svg version="1.1" id="Calque_1" xmlns="http://www.w3.org/2000/svg" xmlns:xlink="http://www.w3.org/1999/xlink" x="0px" y="0px"
	 viewBox="0 0 430 74" style="enable-background:new 0 0 430 74;" xml:space="preserve">
<style type="text/css">
	.st0{fill:#FFFFFF;}
</style>
<rect width="430" height="74"/>
<path class="st0" d="M280.24,42.85c0.29,2.54,1.66,3.73,4.21,3.4l2.99-0.34c2.55-0.32,3.65-1.7,3.37-4.24l-2.49-22.54
	c-0.28-2.54-1.67-3.74-4.21-3.4l-2.99,0.34c-0.66,0.08-1.22,0.23-1.69,0.46v-0.87c0-2.55-1.27-3.85-3.82-3.85h-4.15
	c-2.57,0-3.84,1.3-3.84,3.85v6.06c-0.26-0.03-0.54-0.05-0.85-0.05h-7.15c-0.31,0-0.6,0.02-0.87,0.05v-1.69
	c0-2.57-1.27-3.87-3.82-3.87h-2.26c-2.57,0-3.84,1.3-3.84,3.87v22.31c0,2.55,1.27,3.85,3.84,3.85h22.93c2.55,0,3.82-1.3,3.82-3.85
	v-6.71L280.24,42.85z M271.92,14.77h3.25c0.88,0,1.32,0.46,1.32,1.3v25.87c0,0.85-0.43,1.31-1.32,1.31h-4.56V16.07
	C270.6,15.23,271.04,14.77,271.92,14.77z M283.13,42.12l-2.41-21.74c-0.09-0.84,0.29-1.3,1.16-1.42l2.09-0.25
	c0.87-0.12,1.36,0.31,1.45,1.13l2.41,21.74c0.09,0.85-0.29,1.31-1.16,1.44l-2.1,0.25C283.71,43.39,283.23,42.97,283.13,42.12z
	 M253.12,43.25c-0.87,0-1.31-0.46-1.31-1.31v-21.5c0-0.84,0.45-1.28,1.31-1.28h1.36c0.9,0,1.32,0.45,1.32,1.28v22.82L253.12,43.25
	L253.12,43.25z M260.08,24.64h6.23c0.9,0,1.32,0.45,1.32,1.28v17.33h-8.86V25.92C258.77,25.09,259.2,24.64,260.08,24.64z
	 M261.04,28.54h4.38c0.56,0,0.99-0.45,0.99-1.01s-0.43-0.99-0.99-0.99h-4.38c-0.59,0-1.01,0.43-1.01,0.99S260.47,28.54,261.04,28.54
	z M261.04,41.36h4.38c0.56,0,0.99-0.45,0.99-1.02c0-0.54-0.43-0.99-0.99-0.99h-4.38c-0.57,0-1.01,0.45-1.01,0.99
	C260.04,40.91,260.45,41.36,261.04,41.36z"/>
<path class="st0" d="M175.53,40.25c2.69,0,5.21-0.87,7.31-2.36l7.41,7.97c0.49,0.51,1.12,0.76,1.79,0.76c1.4,0,2.43-1.18,2.43-2.67
	c0-0.69-0.22-1.36-0.69-1.87l-7.36-7.93c1.52-2.32,2.42-5.14,2.42-8.19c0-7.86-5.99-14.29-13.31-14.29
	c-7.31,0-13.31,6.43-13.31,14.29C162.22,33.82,168.21,40.25,175.53,40.25z M175.53,36.44c-5.36,0-9.76-4.72-9.76-10.47
	s4.4-10.47,9.76-10.47s9.76,4.72,9.76,10.47S180.89,36.44,175.53,36.44z"/>
<path class="st0" d="M67.94,28.66c0,0.8,0.62,1.5,1.61,1.5c0.48,0,0.91-0.26,1.3-0.57l1.76-1.49v14.39c0,2.29,1.38,3.65,3.74,3.65
	h20.93c2.35,0,3.74-1.36,3.74-3.65V28.03l1.86,1.56c0.37,0.31,0.8,0.57,1.28,0.57c0.91,0,1.61-0.57,1.61-1.47
	c0-0.53-0.2-0.94-0.6-1.28l-4.15-3.5v-6.59c0-0.7-0.45-1.13-1.14-1.13h-2.13c-0.68,0-1.14,0.43-1.14,1.13v2.88l-7.53-6.33
	c-1.35-1.13-3.05-1.13-4.39,0L68.56,27.41C68.14,27.75,67.94,28.21,67.94,28.66z M91.32,32.93c0-0.73-0.46-1.19-1.19-1.19h-6.5
	c-0.73,0-1.21,0.46-1.21,1.19v10.13h-5.24c-0.96,0-1.49-0.54-1.49-1.52V25.52l10.5-8.82c0.43-0.37,0.93-0.37,1.36,0l10.38,8.73
	v16.12c0,0.97-0.53,1.52-1.49,1.52H91.3V32.93H91.32z"/>
<path class="st0" d="M362.7,29.23c4.81,0,8.7-4,8.7-8.9c0-4.82-3.89-8.66-8.7-8.66c-4.79,0-8.72,3.89-8.7,8.69
	C354.02,25.25,357.89,29.23,362.7,29.23z M362.7,25.96c-2.74,0-5.07-2.45-5.07-5.59c-0.02-3.07,2.3-5.42,5.07-5.42
	c2.78,0,5.07,2.32,5.07,5.39C367.77,23.47,365.46,25.96,362.7,25.96z M350.3,46.62h24.77c3.44,0,5.09-1.03,5.09-3.23
	c0-5.14-6.82-11.99-17.46-11.99s-17.48,6.84-17.48,11.99C345.22,45.59,346.87,46.62,350.3,46.62z M349.69,43.35
	c-0.48,0-0.65-0.15-0.65-0.49c0-2.86,4.91-8.19,13.67-8.19c8.74,0,13.65,5.33,13.65,8.19c0,0.34-0.18,0.49-0.66,0.49H349.69z"/>
</svg>
