<?xml version="1.0" encoding="utf-8"?>
<!-- Generator: Adobe Illustrator 28.3.0, SVG Export Plug-In . SVG Version: 6.00 Build 0)  -->
<svg version="1.1" id="Calque_1" xmlns="http://www.w3.org/2000/svg" xmlns:xlink="http://www.w3.org/1999/xlink" x="0px" y="0px"
	 viewBox="0 0 100 100" style="enable-background:new 0 0 100 100;" xml:space="preserve">
<style type="text/css">
	.st0{fill:#1C1C1E;}
</style>
<path class="st0" d="M7.33,82.85h5.98c1.38,0,1.93-0.23,2.95-1.06l3.08-2.35c1.7,1.75,4.23,2.07,6.77,1.01l15.24-6.35
	c1.15-0.51,1.75-0.92,2.49-1.66l44.42-44.1c4.42-4.42,4.37-9.71-0.09-14.18l-9.94-9.99c-4.46-4.51-9.76-4.56-14.18-0.14L19.62,48.1
	c-0.74,0.78-1.15,1.33-1.66,2.49l-6.44,15.24c-1.06,2.39-0.78,4.83,0.92,6.67l-6.58,6.86C4.43,80.87,5.12,82.85,7.33,82.85z
	 M69.15,10.08c1.2-1.2,2.62-1.24,3.77-0.09l9.44,9.48c1.1,1.15,1.06,2.58-0.14,3.77l-3.08,3.04L66.06,13.11L69.15,10.08z
	 M27.72,51.23l33.42-33.19l13.07,13.12L40.79,64.39L27.72,51.23z M25.19,72.35c-0.87,0.37-1.47,0.37-2.26-0.41l-2.9-2.9
	c-0.78-0.78-0.78-1.43-0.41-2.26l4.14-9.67L34.86,68.3L25.19,72.35z M5.86,99.23h88.28c2.21,0,4-1.89,4-4.05c0-2.21-1.8-4.05-4-4.05
	H5.86c-2.21,0-4,1.84-4,4.05C1.85,97.35,3.65,99.23,5.86,99.23z"/>
</svg>
