<?xml version="1.0" encoding="utf-8"?>
<!-- Generator: Adobe Illustrator 28.3.0, SVG Export Plug-In . SVG Version: 6.00 Build 0)  -->
<svg version="1.1" id="Calque_1" xmlns="http://www.w3.org/2000/svg" xmlns:xlink="http://www.w3.org/1999/xlink" x="0px" y="0px"
	 viewBox="0 0 1000 1000" style="enable-background:new 0 0 1000 1000;" xml:space="preserve">
<style type="text/css">
	.st0{display:none;fill:#DDDDDD;}
	.st1{fill:#FFFFFF;}
</style>
<rect class="st0" width="1000" height="1000"/>
<path class="st1" d="M984.17,633.79c-42.64,29.46-81.67,57.27-121.68,83.57c-12.65,8.31-14.54,15.97-10.35,29.92
	c8.87,29.51,25.08,52.61,51.06,69.09c10.21,6.47,20.03,13.56,36.02,24.44c-31.14,0.51-48.82,12.34-54.69,39.8
	c-46.74-24.74-89.22-50.95-96.88-111.04c-38.68,25.63-74.24,49.41-110.05,72.81c-16.76,10.95-33.42,22.3-51.16,31.46
	c-41.38,21.36-80.87,22.3-120.13-8.35C356.82,748.76,207.03,632.44,55.99,517.75c-28-21.26-42-44.03-39.96-78.81
	c2.08-35.46,16.34-62.83,45.55-83.1c101.11-70.16,201.11-141.97,303.31-210.49c67.14-45.01,139.15-45.32,209.13-5.52
	c61.64,35.06,83.28,89.97,70.02,168.99c9.06-3.98,17.03-7.55,25.06-11.02c78.57-33.95,174.53-11.55,224.03,52.28
	c42.62,54.96,39.5,126.63-9.96,175.28c-18.68,18.37-40.75,33.78-62.87,48.08c-68.49,44.28-137.94,87.08-206.55,131.18
	c-14.3,9.19-28.42,19.96-39.3,32.82c-9.29,10.98-16.57,25.44-19.47,39.45c-1.96,9.49,2.28,24.18,9.24,30.3
	c5.14,4.51,21.03,2.06,28.88-2.67c50.78-30.64,100.66-62.77,154.97-97.01c-15.36-7.17-26.96-12.58-42.25-19.72
	c19.66-12.29,37.09-25.91,56.76-34.17c8.28-3.48,21.19,5.35,32.22,6.74c8.13,1.02,18.38,1.85,24.67-2.08
	c29.73-18.56,58.03-39.38,87.79-57.89c5.94-3.7,17.54-3.69,23.87-0.35C948.65,609.26,964.75,621.15,984.17,633.79z"/>
</svg>
